<?xml version="1.0" encoding="UTF-8" standalone="no"?>
<!-- Created with Inkscape (http://www.inkscape.org/) -->

<svg
   xmlns:dc="http://purl.org/dc/elements/1.1/"
   xmlns:cc="http://creativecommons.org/ns#"
   xmlns:rdf="http://www.w3.org/1999/02/22-rdf-syntax-ns#"
   xmlns:svg="http://www.w3.org/2000/svg"
   xmlns="http://www.w3.org/2000/svg"
   xmlns:xlink="http://www.w3.org/1999/xlink"
   xmlns:sodipodi="http://sodipodi.sourceforge.net/DTD/sodipodi-0.dtd"
   xmlns:inkscape="http://www.inkscape.org/namespaces/inkscape"
   version="1.0"
   width="96"
   height="96"
   id="svg2408"
   inkscape:version="0.48.4 r9939"
   sodipodi:docname="nm-signal-100-secure.svg">
  <sodipodi:namedview
     pagecolor="#ffffff"
     bordercolor="#666666"
     borderopacity="1"
     objecttolerance="10"
     gridtolerance="10"
     guidetolerance="10"
     inkscape:pageopacity="0"
     inkscape:pageshadow="2"
     inkscape:window-width="1440"
     inkscape:window-height="851"
     id="namedview4886"
     showgrid="false"
     inkscape:zoom="2.5501103"
     inkscape:cx="21.082856"
     inkscape:cy="97.290455"
     inkscape:window-x="0"
     inkscape:window-y="0"
     inkscape:window-maximized="1"
     inkscape:current-layer="svg2408" />
  <defs
     id="defs2410">
    <linearGradient
       id="linearGradient4384">
      <stop
         id="stop4386"
         style="stop-color:#ffffff;stop-opacity:1"
         offset="0" />
      <stop
         id="stop4388"
         style="stop-color:#ffffff;stop-opacity:0"
         offset="1" />
    </linearGradient>
    <linearGradient
       id="linearGradient4367">
      <stop
         id="stop4369"
         style="stop-color:#ffffff;stop-opacity:0.71755725"
         offset="0" />
      <stop
         id="stop4371"
         style="stop-color:#ffffff;stop-opacity:1"
         offset="1" />
    </linearGradient>
    <linearGradient
       x1="45.447727"
       y1="92.539597"
       x2="45.447727"
       y2="7.0165396"
       id="ButtonShadow"
       gradientUnits="userSpaceOnUse"
       gradientTransform="scale(1.0058652,0.994169)">
      <stop
         id="stop3750"
         style="stop-color:#000000;stop-opacity:1"
         offset="0" />
      <stop
         id="stop3752"
         style="stop-color:#000000;stop-opacity:0.58823532"
         offset="1" />
    </linearGradient>
    <linearGradient
       id="linearGradient3737">
      <stop
         id="stop3739"
         style="stop-color:#ffffff;stop-opacity:1"
         offset="0" />
      <stop
         id="stop3741"
         style="stop-color:#ffffff;stop-opacity:0"
         offset="1" />
    </linearGradient>
    <filter
       color-interpolation-filters="sRGB"
       id="filter3174">
      <feGaussianBlur
         id="feGaussianBlur3176"
         stdDeviation="1.71" />
    </filter>
    <filter
       x="-0.192"
       y="-0.192"
       width="1.3839999"
       height="1.3839999"
       color-interpolation-filters="sRGB"
       id="filter3794">
      <feGaussianBlur
         id="feGaussianBlur3796"
         stdDeviation="5.28" />
    </filter>
    <linearGradient
       x1="48"
       y1="20.220806"
       x2="48"
       y2="138.66119"
       id="linearGradient3613"
       xlink:href="#linearGradient3737"
       gradientUnits="userSpaceOnUse" />
    <linearGradient
       x1="45.447727"
       y1="92.539597"
       x2="45.447727"
       y2="7.0165396"
       id="ButtonShadow-0"
       gradientUnits="userSpaceOnUse"
       gradientTransform="matrix(1.0058652,0,0,0.994169,100,0)">
      <stop
         id="stop3750-8"
         style="stop-color:#000000;stop-opacity:1"
         offset="0" />
      <stop
         id="stop3752-5"
         style="stop-color:#000000;stop-opacity:0.58823532"
         offset="1" />
    </linearGradient>
    <linearGradient
       x1="32.251034"
       y1="6.1317081"
       x2="32.251034"
       y2="90.238609"
       id="linearGradient3780"
       xlink:href="#ButtonShadow-0"
       gradientUnits="userSpaceOnUse"
       gradientTransform="matrix(1.0238095,0,0,1.0119048,-1.1428571,-98.071429)" />
    <linearGradient
       x1="32.251034"
       y1="6.1317081"
       x2="32.251034"
       y2="90.238609"
       id="linearGradient3772"
       xlink:href="#ButtonShadow-0"
       gradientUnits="userSpaceOnUse"
       gradientTransform="matrix(1.0238095,0,0,1.0119048,-1.1428571,-98.071429)" />
    <linearGradient
       x1="32.251034"
       y1="6.1317081"
       x2="32.251034"
       y2="90.238609"
       id="linearGradient3725"
       xlink:href="#ButtonShadow-0"
       gradientUnits="userSpaceOnUse"
       gradientTransform="matrix(1.0238095,0,0,1.0119048,-1.1428571,-98.071429)" />
    <linearGradient
       x1="32.251034"
       y1="6.1317081"
       x2="32.251034"
       y2="90.238609"
       id="linearGradient3721"
       xlink:href="#ButtonShadow-0"
       gradientUnits="userSpaceOnUse"
       gradientTransform="translate(0,-97)" />
    <linearGradient
       x1="32.251034"
       y1="6.1317081"
       x2="32.251034"
       y2="90.238609"
       id="linearGradient3026"
       xlink:href="#ButtonShadow-0"
       gradientUnits="userSpaceOnUse"
       gradientTransform="matrix(1.0238095,0,0,1.0119048,-1.1428571,-98.071429)" />
    <clipPath
       id="clipPath4355">
      <rect
         width="84"
         height="80"
         rx="6"
         ry="6"
         x="6"
         y="6"
         id="rect4357"
         style="fill:#ffffff;fill-opacity:1;fill-rule:nonzero;stroke:none" />
    </clipPath>
    <radialGradient
       cx="48"
       cy="87.792389"
       r="42"
       fx="48"
       fy="87.792389"
       id="radialGradient4375"
       xlink:href="#linearGradient4367"
       gradientUnits="userSpaceOnUse"
       gradientTransform="matrix(1,-6.7114942e-8,8.4282233e-8,1.2557894,109.99999,-24.505592)" />
    <linearGradient
       x1="48"
       y1="88"
       x2="48"
       y2="-40"
       id="linearGradient4390"
       xlink:href="#linearGradient4384"
       gradientUnits="userSpaceOnUse"
       gradientTransform="matrix(1,0,0,-1,0,92)" />
    <linearGradient
       x1="48"
       y1="82"
       x2="112.12357"
       y2="82.454597"
       id="linearGradient4429"
       xlink:href="#linearGradient4384"
       gradientUnits="userSpaceOnUse"
       spreadMethod="reflect" />
    <linearGradient
       id="linearGradient3892">
      <stop
         id="stop3894"
         style="stop-color:#000000;stop-opacity:0.58823532"
         offset="0" />
      <stop
         id="stop3896"
         style="stop-color:#000000;stop-opacity:0.47058824"
         offset="0.11780351" />
      <stop
         id="stop3898"
         style="stop-color:#000000;stop-opacity:0.39215687"
         offset="0.23809524" />
      <stop
         id="stop3900"
         style="stop-color:#000000;stop-opacity:0.3137255"
         offset="1" />
    </linearGradient>
    <linearGradient
       x1="90"
       y1="88"
       x2="48"
       y2="88"
       id="linearGradient3228"
       xlink:href="#linearGradient3892"
       gradientUnits="userSpaceOnUse"
       spreadMethod="reflect" />
    <linearGradient
       id="linearGradient4081">
      <stop
         id="stop4083"
         style="stop-color:#8c8c8c;stop-opacity:1"
         offset="0" />
      <stop
         id="stop4085"
         style="stop-color:#dcdcdc;stop-opacity:1"
         offset="1" />
    </linearGradient>
    <linearGradient
       x1="48"
       y1="90"
       x2="48"
       y2="5.9877172"
       id="linearGradient3161"
       xlink:href="#linearGradient4081"
       gradientUnits="userSpaceOnUse" />
    <linearGradient
       x1="48.233639"
       y1="48.047016"
       x2="126.13924"
       y2="66.232674"
       id="linearGradient4077-0"
       xlink:href="#linearGradient4071-3"
       gradientUnits="userSpaceOnUse" />
    <linearGradient
       id="linearGradient4071-3">
      <stop
         id="stop4073-8"
         style="stop-color:#000000;stop-opacity:1"
         offset="0" />
      <stop
         id="stop4075-4"
         style="stop-color:#000000;stop-opacity:0"
         offset="1" />
    </linearGradient>
    <linearGradient
       x1="48.055065"
       y1="48.031517"
       x2="126.67282"
       y2="62.838562"
       id="linearGradient4069-9"
       xlink:href="#linearGradient4047-2"
       gradientUnits="userSpaceOnUse" />
    <linearGradient
       id="linearGradient4047-2">
      <stop
         id="stop4049-0"
         style="stop-color:#000000;stop-opacity:1"
         offset="0" />
      <stop
         id="stop4051-5"
         style="stop-color:#000000;stop-opacity:0"
         offset="1" />
    </linearGradient>
    <linearGradient
       x1="47.997307"
       y1="48.028725"
       x2="127.05216"
       y2="60.289631"
       id="linearGradient4061-6"
       xlink:href="#linearGradient4047-2"
       gradientUnits="userSpaceOnUse" />
    <linearGradient
       x1="47.99826"
       y1="48.028797"
       x2="127.41583"
       y2="57.664623"
       id="linearGradient4053-2"
       xlink:href="#linearGradient4047-2"
       gradientUnits="userSpaceOnUse" />
    <radialGradient
       cx="48.410488"
       cy="47.59774"
       r="30.640047"
       fx="48.410488"
       fy="47.59774"
       id="radialGradient3814-9"
       xlink:href="#linearGradient3796-9"
       gradientUnits="userSpaceOnUse"
       gradientTransform="matrix(1,0,0,0.98495914,-30,0.71591078)" />
    <linearGradient
       id="linearGradient3796-9">
      <stop
         id="stop3798-4"
         style="stop-color:#ffffff;stop-opacity:0"
         offset="0" />
      <stop
         id="stop3800-9"
         style="stop-color:#ffffff;stop-opacity:1"
         offset="1" />
    </linearGradient>
    <radialGradient
       cx="48.265148"
       cy="47.886696"
       r="28.878813"
       fx="48.265148"
       fy="47.886696"
       id="radialGradient5008"
       xlink:href="#linearGradient3780-6-5"
       gradientUnits="userSpaceOnUse"
       gradientTransform="matrix(1,0,0,1.013812,-30,-0.66140908)" />
    <linearGradient
       id="linearGradient3780-6-5">
      <stop
         id="stop3782-4"
         style="stop-color:#000000;stop-opacity:0"
         offset="0" />
      <stop
         id="stop3784-9"
         style="stop-color:#000000;stop-opacity:1"
         offset="1" />
    </linearGradient>
    <linearGradient
       x1="48.233643"
       y1="48.04702"
       x2="126.13924"
       y2="66.232674"
       id="linearGradient4145-0"
       xlink:href="#linearGradient4115-2"
       gradientUnits="userSpaceOnUse" />
    <linearGradient
       id="linearGradient4115-2">
      <stop
         id="stop4117-3"
         style="stop-color:#ffffff;stop-opacity:1"
         offset="0" />
      <stop
         id="stop4119-6"
         style="stop-color:#ffffff;stop-opacity:0"
         offset="1" />
    </linearGradient>
    <linearGradient
       x1="48.055069"
       y1="48.031521"
       x2="126.67282"
       y2="62.838566"
       id="linearGradient4137-7"
       xlink:href="#linearGradient4115-2"
       gradientUnits="userSpaceOnUse" />
    <linearGradient
       x1="47.997311"
       y1="48.028728"
       x2="127.05216"
       y2="60.289635"
       id="linearGradient4129-8"
       xlink:href="#linearGradient4115-2"
       gradientUnits="userSpaceOnUse" />
    <linearGradient
       x1="47.998264"
       y1="48.028801"
       x2="127.41583"
       y2="57.664627"
       id="linearGradient4121-6"
       xlink:href="#linearGradient4115-2"
       gradientUnits="userSpaceOnUse" />
    <linearGradient
       x1="48.233639"
       y1="48.047016"
       x2="126.13924"
       y2="66.232674"
       id="linearGradient4089-7"
       xlink:href="#linearGradient4071-3"
       gradientUnits="userSpaceOnUse" />
    <linearGradient
       x1="48.055065"
       y1="48.031517"
       x2="126.67282"
       y2="62.838562"
       id="linearGradient4091-0"
       xlink:href="#linearGradient4047-2"
       gradientUnits="userSpaceOnUse" />
    <linearGradient
       x1="47.997307"
       y1="48.028725"
       x2="127.05216"
       y2="60.289631"
       id="linearGradient4093-5"
       xlink:href="#linearGradient4047-2"
       gradientUnits="userSpaceOnUse" />
    <linearGradient
       x1="47.99826"
       y1="48.028797"
       x2="127.41583"
       y2="57.664623"
       id="linearGradient4095-8"
       xlink:href="#linearGradient4047-2"
       gradientUnits="userSpaceOnUse" />
    <linearGradient
       x1="48.233639"
       y1="48.047016"
       x2="126.13924"
       y2="66.232674"
       id="linearGradient4107-8"
       xlink:href="#linearGradient4071-3"
       gradientUnits="userSpaceOnUse" />
    <linearGradient
       x1="48.055065"
       y1="48.031517"
       x2="126.67282"
       y2="62.838562"
       id="linearGradient4109-3"
       xlink:href="#linearGradient4047-2"
       gradientUnits="userSpaceOnUse" />
    <linearGradient
       x1="47.997307"
       y1="48.028725"
       x2="127.05216"
       y2="60.289631"
       id="linearGradient4111-3"
       xlink:href="#linearGradient4047-2"
       gradientUnits="userSpaceOnUse" />
    <linearGradient
       x1="47.99826"
       y1="48.028797"
       x2="127.41583"
       y2="57.664623"
       id="linearGradient4113-5"
       xlink:href="#linearGradient4047-2"
       gradientUnits="userSpaceOnUse" />
    <linearGradient
       x1="48.233643"
       y1="48.04702"
       x2="126.13924"
       y2="66.232674"
       id="linearGradient4157-8"
       xlink:href="#linearGradient4115-2"
       gradientUnits="userSpaceOnUse" />
    <linearGradient
       x1="48.055069"
       y1="48.031521"
       x2="126.67282"
       y2="62.838566"
       id="linearGradient4159-8"
       xlink:href="#linearGradient4115-2"
       gradientUnits="userSpaceOnUse" />
    <linearGradient
       x1="47.997311"
       y1="48.028728"
       x2="127.05216"
       y2="60.289635"
       id="linearGradient4161-2"
       xlink:href="#linearGradient4115-2"
       gradientUnits="userSpaceOnUse" />
    <linearGradient
       x1="47.998264"
       y1="48.028801"
       x2="127.41583"
       y2="57.664627"
       id="linearGradient4163-3"
       xlink:href="#linearGradient4115-2"
       gradientUnits="userSpaceOnUse" />
    <clipPath
       id="clipPath4311">
      <rect
         width="84"
         height="80"
         rx="6"
         ry="6"
         x="6"
         y="8"
         id="rect4313"
         style="fill:#ff00ff;fill-opacity:1;fill-rule:nonzero;stroke:none" />
    </clipPath>
    <clipPath
       id="clipPath3984">
      <path
         d="m 48,23.9375 c -11.129309,0 -21.279077,4.158995 -29,11 L 23.59375,40.5 C 30.067609,34.678175 38.608602,31.125 48,31.125 c 9.352132,0 17.879606,3.502692 24.34375,9.28125 L 76.90625,34.875 C 69.195817,28.078449 59.088783,23.9375 48,23.9375 z m 0,11.9375 c -8.245651,0 -15.777512,3.060491 -21.5,8.125 l 4.53125,5.46875 c 4.48971,-4.039617 10.4572,-6.5 16.96875,-6.5 6.488637,0 12.45319,2.423229 16.9375,6.4375 l 4.5,-5.46875 C 63.723072,38.907524 56.214275,35.875 48,35.875 z M 46.90625,48 c -4.909389,0.248835 -9.332034,2.197421 -12.78125,5.25 l 4.4375,5.34375 C 41.057955,56.327835 44.363969,54.9375 48,54.9375 c 3.620158,0 6.914617,1.376632 9.40625,3.625 L 61.8125,53.21875 C 58.11696,49.977947 53.306065,48 48,48 47.637481,48 47.264249,47.98186 46.90625,48 z M 48,60.15625 c -2.394145,0 -4.579044,0.861492 -6.28125,2.28125 L 48,70 54.25,62.40625 c -1.697086,-1.402531 -3.871992,-2.25 -6.25,-2.25 z"
         inkscape:connector-curvature="0"
         id="path3986"
         style="opacity:0.8;color:#000000;fill:#ff00ff;fill-opacity:1;fill-rule:nonzero;stroke:none;stroke-width:2;marker:none;visibility:visible;display:inline;overflow:visible;enable-background:accumulate" />
    </clipPath>
    <filter
       color-interpolation-filters="sRGB"
       id="filter3988">
      <feGaussianBlur
         id="feGaussianBlur3990"
         stdDeviation="0.77976563" />
    </filter>
    <linearGradient
       id="linearGradient4281-6-3">
      <stop
         id="stop4283-9-4"
         style="stop-color:#1e1e1e;stop-opacity:1"
         offset="0" />
      <stop
         id="stop4285-8-1"
         style="stop-color:#505050;stop-opacity:1"
         offset="1" />
    </linearGradient>
    <linearGradient
       x1="55.215981"
       y1="23.784462"
       x2="55.215981"
       y2="70.177101"
       id="linearGradient4101"
       xlink:href="#linearGradient4281-6-3"
       gradientUnits="userSpaceOnUse"
       gradientTransform="translate(-110,0)" />
    <linearGradient
       x1="53.967808"
       y1="21.067192"
       x2="53.967808"
       y2="71.71994"
       id="linearGradient4110"
       xlink:href="#linearGradient4281-6-3"
       gradientUnits="userSpaceOnUse"
       gradientTransform="translate(0,1)" />
    <clipPath
       id="clipPath4133">
      <path
         d="M 48,22 C 35.83628,22 24.693685,26.368769 16.03125,33.59375 l 5.25,6.34375 C 28.521081,33.886691 37.826328,30.25 48,30.25 c 10.189415,0 19.50539,3.651146 26.75,9.71875 l 5.28125,-6.3125 C 71.359156,26.397381 60.195491,22 48,22 z m 0,12.96875 c -9.02001,0 -17.294832,3.205036 -23.71875,8.5625 L 29.46875,49.75 C 34.488025,45.574449 40.961346,43.09375 48,43.09375 c 7.054389,0 13.538547,2.49506 18.5625,6.6875 L 71.75,43.5625 C 65.32129,38.188053 57.035899,34.96875 48,34.96875 z M 48,48 c -5.842484,0 -11.183976,2.091608 -15.34375,5.5625 l 5.09375,6.125 c 2.782535,-2.326554 6.339014,-3.75 10.25,-3.75 3.919328,0 7.496163,1.414564 10.28125,3.75 L 63.375,53.59375 C 59.210523,50.106224 53.858056,48 48,48 z m 0,12.75 c -2.739739,0 -5.240931,0.992398 -7.1875,2.625 L 48,72 55.1875,63.40625 C 53.238647,61.765786 50.747147,60.75 48,60.75 z"
         inkscape:connector-curvature="0"
         id="path4135"
         style="opacity:0.8;color:#000000;fill:#ff00ff;fill-opacity:1;fill-rule:nonzero;stroke:none;stroke-width:2;marker:none;visibility:visible;display:inline;overflow:visible;enable-background:accumulate" />
    </clipPath>
    <filter
       color-interpolation-filters="sRGB"
       id="filter4137">
      <feGaussianBlur
         id="feGaussianBlur4139"
         stdDeviation="0.855" />
    </filter>
    <filter
       id="filter4079-9"
       inkscape:menu-tooltip="In and out glow with a possible offset and colorizable flood"
       inkscape:menu="Shadows and Glows"
       inkscape:label="Cutout Glow"
       color-interpolation-filters="sRGB">
      <feOffset
         id="feOffset4081-7"
         dy="3"
         dx="3" />
      <feGaussianBlur
         id="feGaussianBlur4083-5"
         result="result8"
         stdDeviation="3" />
      <feFlood
         id="feFlood4085-3"
         flood-color="rgb(0,0,0)"
         flood-opacity="1"
         in="result8"
         result="result10" />
      <feComposite
         id="feComposite4087-8"
         in2="SourceGraphic"
         operator="in"
         in="result10"
         result="result9" />
      <feBlend
         id="feBlend4089-6"
         in2="result9"
         mode="normal"
         in="result8" />
    </filter>
    <filter
       id="filter4067"
       inkscape:menu-tooltip="In and out glow with a possible offset and colorizable flood"
       inkscape:menu="Shadows and Glows"
       inkscape:label="Cutout Glow"
       color-interpolation-filters="sRGB">
      <feOffset
         id="feOffset4069"
         dy="3"
         dx="3" />
      <feGaussianBlur
         id="feGaussianBlur4071"
         result="result8"
         stdDeviation="3" />
      <feFlood
         id="feFlood4073"
         flood-color="rgb(0,0,0)"
         flood-opacity="1"
         in="result8"
         result="result10" />
      <feComposite
         id="feComposite4075"
         in2="SourceGraphic"
         operator="in"
         in="result10"
         result="result9" />
      <feBlend
         id="feBlend4077"
         in2="result9"
         mode="normal"
         in="result8" />
    </filter>
    <filter
       id="filter4091-4"
       inkscape:menu-tooltip="In and out glow with a possible offset and colorizable flood"
       inkscape:menu="Shadows and Glows"
       inkscape:label="Cutout Glow"
       color-interpolation-filters="sRGB">
      <feOffset
         id="feOffset4093-2"
         dy="3"
         dx="3" />
      <feGaussianBlur
         id="feGaussianBlur4095-9"
         result="result8"
         stdDeviation="3" />
      <feFlood
         id="feFlood4097-1"
         flood-color="rgb(0,0,0)"
         flood-opacity="1"
         in="result8"
         result="result10" />
      <feComposite
         id="feComposite4099-3"
         in2="SourceGraphic"
         operator="in"
         in="result10"
         result="result9" />
      <feBlend
         id="feBlend4101-3"
         in2="result9"
         mode="normal"
         in="result8" />
    </filter>
    <clipPath
       id="clipPath4133-2">
      <path
         d="M 48,22 C 35.83628,22 24.693685,26.368769 16.03125,33.59375 l 5.25,6.34375 C 28.521081,33.886691 37.826328,30.25 48,30.25 c 10.189415,0 19.50539,3.651146 26.75,9.71875 l 5.28125,-6.3125 C 71.359156,26.397381 60.195491,22 48,22 z m 0,12.96875 c -9.02001,0 -17.294832,3.205036 -23.71875,8.5625 L 29.46875,49.75 C 34.488025,45.574449 40.961346,43.09375 48,43.09375 c 7.054389,0 13.538547,2.49506 18.5625,6.6875 L 71.75,43.5625 C 65.32129,38.188053 57.035899,34.96875 48,34.96875 z M 48,48 c -5.842484,0 -11.183976,2.091608 -15.34375,5.5625 l 5.09375,6.125 c 2.782535,-2.326554 6.339014,-3.75 10.25,-3.75 3.919328,0 7.496163,1.414564 10.28125,3.75 L 63.375,53.59375 C 59.210523,50.106224 53.858056,48 48,48 z m 0,12.75 c -2.739739,0 -5.240931,0.992398 -7.1875,2.625 L 48,72 55.1875,63.40625 C 53.238647,61.765786 50.747147,60.75 48,60.75 z"
         inkscape:connector-curvature="0"
         id="path4135-6"
         style="opacity:0.8;color:#000000;fill:#ff00ff;fill-opacity:1;fill-rule:nonzero;stroke:none;stroke-width:2;marker:none;visibility:visible;display:inline;overflow:visible;enable-background:accumulate" />
    </clipPath>
    <filter
       color-interpolation-filters="sRGB"
       id="filter4137-4">
      <feGaussianBlur
         id="feGaussianBlur4139-5"
         stdDeviation="0.855" />
    </filter>
    <clipPath
       id="clipPath4133-5">
      <path
         d="M 48,22 C 35.83628,22 24.693685,26.368769 16.03125,33.59375 l 5.25,6.34375 C 28.521081,33.886691 37.826328,30.25 48,30.25 c 10.189415,0 19.50539,3.651146 26.75,9.71875 l 5.28125,-6.3125 C 71.359156,26.397381 60.195491,22 48,22 z m 0,12.96875 c -9.02001,0 -17.294832,3.205036 -23.71875,8.5625 L 29.46875,49.75 C 34.488025,45.574449 40.961346,43.09375 48,43.09375 c 7.054389,0 13.538547,2.49506 18.5625,6.6875 L 71.75,43.5625 C 65.32129,38.188053 57.035899,34.96875 48,34.96875 z M 48,48 c -5.842484,0 -11.183976,2.091608 -15.34375,5.5625 l 5.09375,6.125 c 2.782535,-2.326554 6.339014,-3.75 10.25,-3.75 3.919328,0 7.496163,1.414564 10.28125,3.75 L 63.375,53.59375 C 59.210523,50.106224 53.858056,48 48,48 z m 0,12.75 c -2.739739,0 -5.240931,0.992398 -7.1875,2.625 L 48,72 55.1875,63.40625 C 53.238647,61.765786 50.747147,60.75 48,60.75 z"
         inkscape:connector-curvature="0"
         id="path4135-8"
         style="opacity:0.8;color:#000000;fill:#ff00ff;fill-opacity:1;fill-rule:nonzero;stroke:none;stroke-width:2;marker:none;visibility:visible;display:inline;overflow:visible;enable-background:accumulate" />
    </clipPath>
    <filter
       color-interpolation-filters="sRGB"
       id="filter4137-1">
      <feGaussianBlur
         id="feGaussianBlur4139-3"
         stdDeviation="0.855" />
    </filter>
  </defs>
  <metadata
     id="metadata2413">
    <rdf:RDF>
      <cc:Work
         rdf:about="">
        <dc:format>image/svg+xml</dc:format>
        <dc:type
           rdf:resource="http://purl.org/dc/dcmitype/StillImage" />
        <dc:title />
      </cc:Work>
    </rdf:RDF>
  </metadata>
  <g
     id="layer2"
     style="display:none">
    <rect
       width="86"
       height="85"
       rx="6"
       ry="6"
       x="5"
       y="7"
       id="rect3745"
       style="opacity:0.9;fill:url(#ButtonShadow);fill-opacity:1;fill-rule:nonzero;stroke:none;filter:url(#filter3174)" />
  </g>
  <g
     id="layer5"
     style="display:none">
    <rect
       width="66"
       height="62"
       rx="12"
       ry="12"
       x="15"
       y="15"
       clip-path="url(#clipPath4355)"
       id="rect3171"
       style="opacity:0.1;fill:url(#linearGradient3613);fill-opacity:1;fill-rule:nonzero;stroke:#ffffff;stroke-width:0.5;stroke-linecap:round;stroke-linejoin:miter;stroke-miterlimit:4;stroke-opacity:1;stroke-dasharray:none;stroke-dashoffset:0;filter:url(#filter3794)" />
  </g>
  <path
     style="color:#000000;fill:#0099ef;fill-opacity:1;fill-rule:nonzero;stroke:none;stroke-width:2;marker:none;visibility:visible;display:inline;overflow:visible;enable-background:accumulate"
     id="path3876"
     inkscape:connector-curvature="0"
     d="M 48,22 C 35.83628,22 24.693685,26.368769 16.03125,33.59375 l 5.25,6.34375 C 28.521081,33.886691 37.826328,30.25 48,30.25 c 10.189415,0 19.50539,3.651146 26.75,9.71875 l 5.28125,-6.3125 C 71.359156,26.397381 60.195491,22 48,22 z m 0,12.96875 c -9.02001,0 -17.294832,3.205036 -23.71875,8.5625 L 29.46875,49.75 C 34.488025,45.574449 40.961346,43.09375 48,43.09375 c 7.054389,0 13.538547,2.49506 18.5625,6.6875 L 71.75,43.5625 C 65.32129,38.188053 57.035899,34.96875 48,34.96875 z M 48,48 c -5.842484,0 -11.183976,2.091608 -15.34375,5.5625 l 5.09375,6.125 c 2.782535,-2.326554 6.339014,-3.75 10.25,-3.75 3.919328,0 7.496163,1.414564 10.28125,3.75 L 63.375,53.59375 C 59.210523,50.106224 53.858056,48 48,48 z m 0,12.75 c -2.739739,0 -5.240931,0.992398 -7.1875,2.625 L 48,72 55.1875,63.40625 C 53.238647,61.765786 50.747147,60.75 48,60.75 z" />
  <path
     style="opacity:0.59999999999999998;color:#000000;fill:#ffffff;fill-opacity:1;fill-rule:nonzero;stroke:none;stroke-width:2;marker:none;visibility:visible;display:inline;overflow:visible;enable-background:accumulate"
     id="path4118"
     inkscape:connector-curvature="0"
     d="m 48,30.25 c -10.173672,0 -19.478919,3.636691 -26.71875,9.6875 l -4.75,-5.75 c -0.166828,0.135567 -0.334963,0.268599 -0.5,0.40625 l 5.25,6.34375 C 28.521081,34.886691 37.826328,31.25 48,31.25 c 10.189415,0 19.50539,3.651146 26.75,9.71875 l 5.28125,-6.3125 c -0.165221,-0.138296 -0.33298,-0.270042 -0.5,-0.40625 L 74.75,39.96875 C 67.50539,33.901146 58.189415,30.25 48,30.25 z m 0,12.84375 c -7.038654,0 -13.511975,2.480699 -18.53125,6.65625 l -4.6875,-5.625 c -0.168587,0.135653 -0.33387,0.2677 -0.5,0.40625 L 29.46875,50.75 C 34.488025,46.574449 40.961346,44.09375 48,44.09375 c 7.054389,0 13.538547,2.49506 18.5625,6.6875 L 71.75,44.5625 c -0.166254,-0.13899 -0.331281,-0.270161 -0.5,-0.40625 l -4.6875,5.625 C 61.538547,45.58881 55.054389,43.09375 48,43.09375 z M 33.15625,54.1875 c -0.161898,0.128211 -0.341496,0.242745 -0.5,0.375 l 5.09375,6.125 c 2.782535,-2.326554 6.339014,-3.75 10.25,-3.75 3.919328,0 7.496163,1.414564 10.28125,3.75 L 63.375,54.59375 c -0.163522,-0.13694 -0.332857,-0.273613 -0.5,-0.40625 l -4.59375,5.5 C 55.496163,57.352064 51.919328,55.9375 48,55.9375 c -3.910986,0 -7.467465,1.423446 -10.25,3.75 l -4.59375,-5.5 z m 8.15625,9.78125 c -0.17153,0.128147 -0.336141,0.26882 -0.5,0.40625 L 48,73 55.1875,64.40625 C 55.023449,64.268159 54.85907,64.129005 54.6875,64 L 48,72 41.3125,63.96875 z" />
  <path
     style="opacity:0.4;color:#000000;fill:#ffffff;fill-opacity:1;stroke:#000000;stroke-width:2;marker:none;visibility:visible;display:inline;overflow:visible;filter:url(#filter4137);enable-background:accumulate"
     id="path4127"
     clip-path="url(#clipPath4133)"
     inkscape:connector-curvature="0"
     d="M 48,23 C 35.83628,23 24.693685,27.368769 16.03125,34.59375 l 5.25,6.34375 C 28.521081,34.886691 37.826328,31.25 48,31.25 c 10.189415,0 19.50539,3.651146 26.75,9.71875 l 5.28125,-6.3125 C 71.359156,27.397381 60.195491,23 48,23 z m 0,12.96875 c -9.02001,0 -17.294832,3.205036 -23.71875,8.5625 L 29.46875,50.75 C 34.488025,46.574449 40.961346,44.09375 48,44.09375 c 7.054389,0 13.538547,2.49506 18.5625,6.6875 L 71.75,44.5625 C 65.32129,39.188053 57.035899,35.96875 48,35.96875 z M 48,49 c -5.842484,0 -11.183976,2.091608 -15.34375,5.5625 l 5.09375,6.125 c 2.782535,-2.326554 6.339014,-3.75 10.25,-3.75 3.919328,0 7.496163,1.414564 10.28125,3.75 L 63.375,54.59375 C 59.210523,51.106224 53.858056,49 48,49 z m 0,12.75 c -2.739739,0 -5.240931,0.992398 -7.1875,2.625 L 48,73 55.1875,64.40625 C 53.238647,62.765786 50.747147,61.75 48,61.75 z" />
  <path
     style="color:#000000;fill:#999999;fill-opacity:1;fill-rule:nonzero;stroke:none;stroke-width:2;marker:none;visibility:visible;display:inline;overflow:visible;enable-background:accumulate"
     id="rect4062"
     inkscape:connector-curvature="0"
     d="m 72.5,51.25 c -2.493,0 -4.5,2.007 -4.5,4.5 l 0,3 -1.5,0 c -0.831,0 -1.5,0.669 -1.5,1.5 l 0,12 c 0,0.831 0.669,1.5 1.5,1.5 l 15,0 c 0.831,0 1.5,-0.669 1.5,-1.5 l 0,-12 c 0,-0.831 -0.669,-1.5 -1.5,-1.5 l -1.5,0 0,-3 c 0,-2.493 -2.007,-4.5 -4.5,-4.5 l -3,0 z m 0,3 3,0 c 0.831,0 1.5,0.669 1.5,1.5 l 0,3 -6,0 0,-3 c 0,-0.831 0.669,-1.5 1.5,-1.5 z" />
</svg>
